<svg xmlns="http://www.w3.org/2000/svg" width="78.135" height="78.135" viewBox="0 0 78.135 78.135">
  <g id="arrow-down-circle-fill" transform="translate(0 78.135) rotate(-90)">
    <path id="Path_4" data-name="Path 4" d="M78.135,39.068A39.068,39.068,0,1,1,39.068,0,39.068,39.068,0,0,1,78.135,39.068ZM41.509,24.417a2.442,2.442,0,1,0-4.883,0V47.824L26.146,37.339A2.445,2.445,0,1,0,22.689,40.8l14.65,14.65a2.442,2.442,0,0,0,3.457,0L55.447,40.8a2.445,2.445,0,1,0-3.457-3.457L41.509,47.823Z" fill-rule="evenodd"/>
  </g>
</svg>
